#!OML:ASF F:\VICON\USERDATA\INSTALL\rory3\rory3.ASF
:FULLY-SPECIFIED
:DEGREES
119
root 1.3443182353345215 17.830954374270753 48.36827787442724 -3.7621680769401866 0.3062449454256604 -3.6905242454965177
lfemur -13.484998570853648 -3.1213093841390664 -18.527140797382543
ltibia 34.97841543776169
lfoot -7.849808327709416 1.4649905455900503
ltoes -10.506426963599424
rfemur -11.916085396389086 1.914313975975086 25.5343386133951
rtibia 43.584071687150505
rfoot -6.063948727618559 -9.164322873430105
rtoes 5.6485675781702245
lowerback 1.0 -0.16698092415617044 1.8432926170985868
upperback -0.011817740944004729 0.5843399858242755 1.5128915154325937
thorax -5.2284652223154575 0.3255191553962992 0.23272415246064226
lowerneck -15.811453528616358 -3.2971153080023994 -1.3643949141732887
upperneck 23.048925179108235 -4.357430916609933 0.23175020533746116
head 10.109224336991673 -2.075195141687371 -0.25718194630320124
lclavicle -1.820560448921972e-15 -1.3264031256890287e-16
lhumerus -32.04567744246867 3.3520808974200857 82.51802240871488
lradius 24.46854776413806
lwrist 7.505030440791694
lhand -27.515017117997147 23.37174310558003
lfingers nan
lthumb -1.076890070954082 53.17781943683925
rclavicle -1.8669563037618538e-15 -1.7885365223796518e-16
rhumerus -29.577252025783725 -24.4857361899042 -73.3338010294146
rradius 30.94156940929844
rwrist 2.1801994806943394
rhand -18.0686959561479 1.0
rfingers nan
rthumb 8.359878082402936 -7.909794722845229
120
root 1.349860418763292 17.841802621765098 49.10909875419266 -3.668155452382654 0.34390108445967704 -3.1401178220544503
lfemur -11.99728967230277 -3.2431741432771886 -19.40209662965928
ltibia 32.4282319866709
lfoot -8.090143339293801 0.15815764705256363
ltoes -10.356269010128253
rfemur -12.995470089959035 1.626336541286865 24.75881639468686
rtibia 45.75864761821206
rfoot -6.289930618273834 -9.102390227119997
rtoes 6.251776204282686
lowerback 1.0 -0.25545418447172497 1.428971940170642
upperback -0.011744366608852363 0.3736670923161596 1.4663381924287082
thorax -5.226655852529701 0.2164828231178588 0.4114832303824211
lowerneck -15.869999439092076 -3.3032130864905507 -1.3827805763145442
upperneck 22.937870521071524 -4.375333248536937 0.3409979913522059
head 10.076435476540384 -2.0748197147999283 -0.2141807093299053
lclavicle -1.8220375818954335e-15 -1.3319284434943492e-16
lhumerus -31.59027234867167 2.9753415913773935 82.46976391373444
lradius 25.004949861680558
lwrist 7.300218727890369
lhand -27.46192341904228 23.383939415155066
lfingers nan
lthumb -1.0388339941584057 53.201960885082315
rclavicle -1.8671661230688025e-15 -1.7772805671054073e-16
rhumerus -29.42929115898154 -24.267373603752247 -73.32977294408143
rradius 31.04740065790117
rwrist 1.7183034337633813
rhand -18.06382108302461 1.0
rfingers nan
rthumb 8.346383801684606 -7.947973953124498
121
root 1.3388150452629228 17.843865598955738 47.96411970369466 -3.6974299756477302 0.3155764881502221 -2.7652684333680613
lfemur -10.333865144788813 -3.4157498698806794 -20.186065281241255
ltibia 30.659138558009133
lfoot -8.29376754020313 -0.0884082566983988
ltoes -9.128320049272974
rfemur -13.996959215742477 1.3223261983801606 24.240912284777178
rtibia 47.53189973124904
rfoot -6.658171266949601 -8.610554492651234
rtoes 6.666373711779426
lowerback 1.0 -0.33197014324770335 1.1090429543568603
upperback -0.015058096650573172 0.21120960892355656 1.4650706183443258
thorax -5.22977387477235 0.12951301279488134 0.565366653713742
lowerneck -15.931196826915421 -3.303791284358501 -1.4000225051657667
upperneck 22.783920135469483 -4.380034640759896 0.44751363173383923
head 10.0381750677949 -2.06922816573872 -0.17194365487830565
lclavicle -1.8239045783405363e-15 -1.3369309463709583e-16
lhumerus -31.115959831956655 2.4882061646471807 82.38303368515814
lradius 25.531499252420797
lwrist 7.029165283330325
lhand -27.380863462073393 23.424608901463735
lfingers nan
lthumb -0.9475302045724747 53.28229790183644
rclavicle -1.8701266667984483e-15 -1.7787060081034155e-16
rhumerus -29.477952490000067 -24.22541166571383 -73.51641687579648
rradius 31.16373734337185
rwrist 1.6567124103196162
rhand -18.058300727729048 1.0
rfingers nan
rthumb 8.35352939779412 -7.934047070483732
122
root 1.3675775907165537 17.85476666728717 49.21212029330709 -3.6175530589991536 0.5287570872754495 -2.0066289221458473
lfemur -8.638863744658906 -3.785964900428654 -21.399984168277047
ltibia 29.655118610539752
lfoot -8.361946875835837 -0.5932462462302202
ltoes -9.358567787076408
rfemur -15.037451376069344 0.9354306311760889 23.29043700858906
rtibia 48.862642009068146
rfoot -7.039405257325294 -7.814418420403409
rtoes 6.895700843613897
lowerback 1.0 -0.49345899783026226 0.5782210890619033
upperback -0.03106990463332182 -0.10733730867171465 1.4262760542431276
thorax -5.264461245141029 -0.03164566458361823 0.8288976616573368
lowerneck -15.994539107969052 -3.289161066199475 -1.4029900101275619
upperneck 22.63144530625791 -4.355059023450283 0.5305006708409817
head 10.009530597264192 -2.0545770723863073 -0.13623261905577405
lclavicle -1.825678771296908e-15 -1.3416906422991604e-16
lhumerus -30.598944812460278 1.9626145102445047 82.25895717695745
lradius 26.025169891120427
lwrist 6.7606782233317455
lhand -27.340756814774625 23.425168945926075
lfingers nan
lthumb -0.9076129743240761 53.29439572047474
rclavicle -1.8735241373557353e-15 -1.7860521937248958e-16
rhumerus -29.60374399157642 -24.242153032031744 -73.87117558505187
rradius 31.251677691723895
rwrist 1.7390775702820775
rhand -18.04704082287809 1.0
rfingers nan
rthumb 8.359190791484234 -7.9051053203514225
